<svg id="Layer_1" enable-background="new 0 0 512.003 512.003" height="512" viewBox="0 0 512.003 512.003" width="512" xmlns="http://www.w3.org/2000/svg"><g><path d="m140.107 281.589v-8.911c.066-20.065-24.254-30.576-38.775-17.035-8.444-8.076-22.834-8.074-31.275 0-13.106-12.243-35.007-4.952-38.337 12.553-14.683-6.207-32.052 5.45-31.715 21.483v85.197c0 18.558 10.642 35.587 26.957 43.897v85.68c0 4.142 3.357 7.5 7.5 7.5s7.5-3.358 7.5-7.5v-90.551c0-3.118-1.929-5.91-4.845-7.014-13.226-5.007-22.112-17.872-22.112-32.012v-48.629c7.864 3.15 17.855 1.083 23.775-4.621 8.444 8.076 22.835 8.075 31.276 0 4.121 3.786 9.613 6.103 15.638 6.103h28.773v10.222c-14.886 5.439-28.819 20.409-28.819 41.229 0 4.142 3.357 7.5 7.5 7.5s7.5-3.358 7.5-7.5c0-15.567 11.688-26.132 22.686-28.169 3.555-.659 6.134-3.759 6.134-7.375v-23.408c0-4.142-3.357-7.5-7.5-7.5h-36.274c-4.487 0-8.138-3.651-8.138-8.138s3.65-8.138 8.138-8.138h51.912c4.487 0 8.138 3.65 8.138 8.138v70.286c0 14.14-8.887 27.004-22.112 32.012-2.916 1.104-4.845 3.896-4.845 7.014v90.551c0 4.142 3.357 7.5 7.5 7.5s7.5-3.358 7.5-7.5v-85.68c16.315-8.31 26.957-25.339 26.957-43.897v-70.286c0-11.913-9.051-21.749-20.637-23.001zm-23.138-17.049c4.487 0 8.138 3.65 8.138 8.138v8.774h-16.275v-8.774c0-4.487 3.65-8.138 8.137-8.138zm-93.827 48.188c-4.487 0-8.138-3.65-8.138-8.138v-.684-14.228c.41-10.784 15.869-10.775 16.275 0v14.912c.001 4.488-3.649 8.138-8.137 8.138zm31.277 0c-4.487 0-8.139-3.65-8.139-8.138v-14.912-17c.41-10.783 15.87-10.776 16.276 0v31.912c0 4.488-3.65 8.138-8.137 8.138zm23.137-29.794v-10.255c.41-10.784 15.869-10.775 16.275 0v8.774h-8.138c-2.862-.001-5.604.525-8.137 1.481z"/><path d="m475.547 444.786c-4.143 0-7.5 3.358-7.5 7.5v52.167c.344 9.931 14.66 9.923 15 0v-52.167c0-4.142-3.357-7.5-7.5-7.5z"/><path d="m495.179 143.37c-12.063-3.424-25.19 4.007-28.575 15.942l-13.876 48.897-8.811-47.777c-2.314-12.547-14.411-20.875-26.951-18.558-12.547 2.314-20.871 14.404-18.558 26.951l7.529 40.828c-11.456-1.115-22.724 7.221-24.956 18.544-14.683-6.207-32.053 5.449-31.716 21.483v85.197c0 18.558 10.642 35.587 26.957 43.897v125.68c0 4.142 3.357 7.5 7.5 7.5s7.5-3.358 7.5-7.5v-130.552c0-3.118-1.929-5.91-4.845-7.014-13.226-5.007-22.112-17.872-22.112-32.012v-48.629c7.864 3.151 17.856 1.082 23.776-4.621 8.443 8.076 22.834 8.074 31.275 0 4.121 3.786 9.614 6.103 15.638 6.103h28.774v10.222c-14.887 5.439-28.82 20.409-28.82 41.229 0 4.142 3.357 7.5 7.5 7.5s7.5-3.358 7.5-7.5c0-15.567 11.688-26.132 22.687-28.169 3.555-.658 6.134-3.759 6.134-7.375v-23.408c0-4.142-3.357-7.5-7.5-7.5h-36.274c-10.765-.4-10.792-15.865 0-16.276 17.304 0 34.608.002 51.912 0 4.487 0 8.138 3.65 8.138 8.138v70.286c0 14.14-8.887 27.004-22.112 32.012-2.916 1.104-4.845 3.896-4.845 7.014v39.717c0 4.142 3.357 7.5 7.5 7.5s7.5-3.358 7.5-7.5v-34.846c16.315-8.31 26.957-25.339 26.957-43.897v-70.286c0-11.251-8.073-20.646-18.729-22.711l19.846-69.934c3.482-12.275-3.669-25.094-15.943-28.575zm-122.776 129.358c-4.487 0-8.138-3.65-8.138-8.138v-.684-14.228c.41-10.784 15.87-10.775 16.276 0v14.912c.001 4.488-3.651 8.138-8.138 8.138zm39.414-8.138c-.405 10.773-15.865 10.786-16.275 0v-14.912-17c.404-10.772 15.865-10.786 16.275 0zm15-21.656v-10.255c0-4.605-1.358-8.896-3.686-12.505l-9.971-54.069c-.814-4.413 2.113-8.665 6.526-9.479 4.413-.813 8.665 2.114 9.479 6.527l14.44 78.3h-8.65c-2.863-.001-5.605.525-8.138 1.481zm69.875-75.084-20.887 73.602h-16.92l22.149-78.046c1.802-4.645 5.152-6.514 10.051-5.606 4.316 1.224 6.832 5.733 5.607 10.05z"/><path d="m210.053 226.245c-13.227-5.007-22.113-17.872-22.113-32.011v-19.781c0-9.697-15-9.697-15 0v19.781c0 18.558 10.642 35.587 26.958 43.896v266.322c0 4.142 3.357 7.5 7.5 7.5s7.5-3.358 7.5-7.5v-271.193c0-3.117-1.929-5.91-4.845-7.014z"/><path d="m367.524 112.211c-2.217-5.769-6.549-10.329-12.195-12.84-11.521-5.121-25.522.449-30.576 11.814l-11.709 27.111v-93.26c.318-15.84-16.63-27.481-31.276-21.66-1.781-31.114-45.02-31.087-46.275 0-14.649-5.817-31.592 5.819-31.275 21.661v15.34c-14.639-5.816-31.6 5.817-31.276 21.66v54.916c0 9.697 15 9.697 15 0v-54.917c.418-10.791 15.868-10.771 16.276 0v52.16c0 9.697 15 9.697 15 0 0-29.72 0-59.44 0-89.16.401-10.763 15.862-10.795 16.275 0v72.934c0 9.697 15 9.697 15 0v-94.88c0-4.487 3.65-8.138 8.138-8.138s8.138 3.65 8.138 8.138v94.88c0 9.697 15 9.697 15 0v-72.934c0-4.487 3.651-8.138 8.139-8.138s8.138 3.65 8.138 8.138v110.64c-22.138 1.979-39.46 20.591-39.46 42.862 0 9.697 15 9.697 15 0 0-21.027 19.038-28.786 36.963-28.043 2.992 0 5.699-1.779 6.886-4.526l21.06-48.762c2.44-4.342 6.021-5.719 10.741-4.129 4.343 2.44 5.72 6.021 4.13 10.742-11.829 26.603-36.258 81.051-36.258 81.051-3.458 9.825-11.136 17.816-20.538 21.375-2.916 1.104-4.845 3.896-4.845 7.014v271.193c0 4.142 3.357 7.5 7.5 7.5s7.5-3.358 7.5-7.5v-266.335c11.148-5.73 20.07-15.856 24.419-27.952 12.074-26.708 24.018-53.47 35.927-80.252 2.509-5.647 2.671-11.934.453-17.703z"/></g></svg>